<svg xmlns="http://www.w3.org/2000/svg" width="512" height="512" viewBox="0 0 512 512" version="1.1">
	<path d="M 232.500 1.054 C 182.517 6.208, 138.126 23.945, 98 54.794 C 74.554 72.820, 43.659 109.767, 30.947 134.984 C 24.777 147.224, 15.192 170.208, 12.393 179.476 C 3.418 209.193, -0.234 252.184, 3.429 285 C 6.609 313.500, 11.535 333.628, 20.682 355.500 C 33.711 386.654, 51.074 412.200, 76.443 437.542 C 97.449 458.526, 117.046 472.549, 143.500 485.526 C 168.461 497.770, 191.162 504.932, 218.500 509.187 C 238.549 512.307, 273.451 512.307, 293.500 509.187 C 320.838 504.932, 343.539 497.770, 368.500 485.526 C 394.954 472.549, 414.551 458.526, 435.557 437.542 C 461.692 411.435, 478.741 385.805, 491.796 353 C 500.127 332.066, 502.987 321.878, 506.395 301 C 512.068 266.243, 511.276 232.536, 503.944 196.731 C 500.403 179.442, 496.563 167.931, 487.684 148 C 476.383 122.632, 468.371 110.550, 445.246 84 C 425.270 61.065, 397.773 40.504, 367.637 25.966 C 343.060 14.109, 319.751 6.832, 293.809 2.916 C 278.405 0.591, 246.415 -0.381, 232.500 1.054 M 238 30.600 C 236.075 30.832, 230.675 31.492, 226 32.065 C 207.154 34.378, 182.196 41.458, 163.198 49.882 C 143.630 58.558, 122.296 72.402, 105.211 87.510 C 104.187 88.415, 105.084 90.068, 109.571 95.542 C 112.678 99.333, 116.988 105.037, 119.148 108.217 C 121.307 111.398, 123.395 113.999, 123.787 113.997 C 124.179 113.996, 127.200 112.345, 130.500 110.329 C 140.460 104.243, 151.136 104.699, 155.525 111.398 C 159.486 117.444, 159.292 124.816, 155.029 130.236 C 153.948 131.610, 149.900 134.614, 146.032 136.912 C 142.164 139.209, 139 141.307, 139 141.573 C 139 141.839, 140.403 144.837, 142.118 148.234 C 143.833 151.631, 146.798 158.481, 148.707 163.455 C 150.616 168.430, 152.550 172.890, 153.005 173.366 C 153.468 173.850, 157.606 173.235, 162.392 171.971 C 170.708 169.774, 171.081 169.759, 175.493 171.444 C 183.888 174.650, 187.612 182.490, 184.550 190.508 C 182.303 196.393, 179.393 198.511, 169.346 201.575 C 164.756 202.975, 161.002 204.656, 161.004 205.311 C 161.006 205.965, 161.659 210.550, 162.454 215.500 C 163.249 220.450, 164.204 227.937, 164.577 232.139 L 165.256 239.778 175.100 240.173 C 183.020 240.491, 185.476 240.965, 187.661 242.596 C 192.721 246.374, 194.500 249.730, 194.500 255.500 C 194.500 261.270, 192.721 264.626, 187.661 268.404 C 185.476 270.035, 183.020 270.509, 175.100 270.827 L 165.256 271.222 164.576 278.861 C 164.203 283.063, 163.222 290.729, 162.398 295.897 C 161.573 301.065, 161.094 305.802, 161.332 306.424 C 161.571 307.045, 165.081 308.403, 169.133 309.440 C 175.167 310.986, 177.269 312.088, 180.750 315.532 C 184.679 319.419, 185 320.134, 185 325 C 185 331.565, 182.275 336.309, 176.939 339.031 C 172.111 341.494, 170.208 341.490, 161.500 339 C 157.654 337.900, 153.979 337, 153.335 337 C 152.690 337, 151.164 340.038, 149.943 343.750 C 148.722 347.463, 145.758 354.735, 143.355 359.910 C 140.953 365.086, 139.213 369.546, 139.490 369.823 C 139.766 370.100, 143.243 372.171, 147.215 374.426 C 155.951 379.386, 159.002 383.392, 158.996 389.898 C 158.989 398.541, 152.575 404.996, 144 404.989 C 140.518 404.986, 137.753 403.987, 131.773 400.571 L 124.046 396.157 118.851 403.329 C 115.994 407.273, 111.692 412.924, 109.291 415.888 C 106.890 418.851, 105.054 421.600, 105.213 421.998 C 105.763 423.381, 118.572 433.754, 127.008 439.647 C 156.202 460.042, 190.601 473.538, 226 478.484 C 241.288 480.621, 270.759 480.618, 285.944 478.480 C 321.144 473.522, 354.778 460.582, 383 441.141 C 393.188 434.122, 407 423.006, 407 421.824 C 407 421.428, 404.850 418.493, 402.222 415.302 C 399.593 412.111, 395.317 406.493, 392.719 402.817 L 387.995 396.134 380.247 400.560 C 374.843 403.647, 371.351 404.987, 368.700 404.993 C 359.047 405.011, 351.612 395.868, 354.017 386.936 C 355.500 381.428, 358.291 378.531, 366.458 374.023 L 373.854 369.940 370.058 362.220 C 367.970 357.974, 365.005 350.900, 363.469 346.500 C 361.933 342.100, 360.331 338.105, 359.909 337.621 C 359.478 337.127, 355.543 337.714, 350.924 338.960 C 343.737 340.899, 342.158 341.024, 338.339 339.955 C 329.419 337.458, 325.112 328.663, 328.639 320.151 C 330.986 314.489, 334.770 311.807, 343.722 309.461 C 347.450 308.483, 350.888 307.344, 351.363 306.929 C 351.841 306.511, 351.532 302.013, 350.669 296.837 C 349.813 291.702, 348.808 283.838, 348.437 279.362 L 347.761 271.223 337.908 270.827 C 329.980 270.509, 327.524 270.035, 325.339 268.404 C 320.279 264.626, 318.500 261.270, 318.500 255.500 C 318.500 249.730, 320.279 246.374, 325.339 242.596 C 327.525 240.964, 329.981 240.491, 337.919 240.172 L 347.782 239.776 348.492 231.138 C 348.882 226.387, 349.831 218.900, 350.599 214.500 C 351.368 210.100, 351.998 205.965, 351.999 205.311 C 351.999 204.656, 348.202 202.963, 343.560 201.547 C 333.800 198.570, 329.503 195.410, 327.889 190.023 C 325.512 182.092, 330.237 173.208, 338.081 170.858 C 341.404 169.862, 343.238 170.024, 350.572 171.961 C 355.300 173.210, 359.495 173.843, 359.896 173.366 C 360.296 172.890, 362.119 168.450, 363.946 163.500 C 365.772 158.550, 368.763 151.512, 370.591 147.860 L 373.914 141.220 365.922 136.576 C 360.984 133.707, 357.180 130.703, 355.968 128.716 C 353.386 124.481, 353.398 117.500, 355.995 113.241 C 361.185 104.729, 369.974 103.874, 381.200 110.790 L 387.900 114.917 393.096 107.709 C 395.953 103.744, 400.287 98.135, 402.727 95.245 C 405.167 92.355, 407.014 89.616, 406.832 89.159 C 406.238 87.672, 392.698 76.558, 384.406 70.750 C 347.957 45.224, 305.229 31.526, 259 30.548 C 249.375 30.344, 239.925 30.368, 238 30.600 M 74.700 119.750 C 56.654 144.037, 43.710 171.631, 37.028 200.058 C 32.606 218.869, 31.021 233.520, 31.029 255.500 C 31.039 284.131, 33.809 302.876, 41.667 327.500 C 46.394 342.315, 50.551 351.556, 59.455 367.051 C 66.707 379.673, 80.373 399, 82.044 399 C 83.054 399, 94.954 382.894, 94.981 381.492 C 94.991 380.937, 91.962 378.660, 88.250 376.432 C 80.079 371.528, 77 367.387, 77 361.302 C 77 347.720, 90.344 341.540, 102.793 349.357 C 111.453 354.795, 110.690 354.962, 114.413 346.806 C 116.246 342.788, 118.692 336.927, 119.848 333.782 L 121.948 328.063 117.724 326.975 C 105.855 323.919, 103.038 322.416, 100.018 317.528 C 95.853 310.791, 98.284 301.236, 105.241 296.995 C 109.204 294.578, 114.008 294.477, 122.581 296.631 C 126.151 297.527, 129.264 298.069, 129.499 297.834 C 130.257 297.076, 132.992 278.634, 132.996 274.250 L 133 270 124.901 270 C 115.287 270, 110.973 268.310, 107.900 263.339 C 105.080 258.775, 104.994 250.832, 107.727 247.143 C 111.855 241.568, 115.570 240, 124.648 240 L 133 240 133 236.878 C 133 233.222, 130.041 212.708, 129.425 212.092 C 129.194 211.860, 126.310 212.420, 123.017 213.335 C 115.026 215.557, 109.250 215.450, 105.241 213.005 C 98.381 208.823, 96.146 200.531, 99.905 193.210 C 102.226 188.689, 106.238 186.231, 114.909 184.015 C 120.410 182.610, 121.445 182.015, 121.170 180.416 C 120.733 177.881, 112.001 157.119, 111.151 156.593 C 110.786 156.368, 107.791 157.793, 104.494 159.760 C 96.849 164.323, 89.221 165.190, 84.241 162.064 C 77.491 157.827, 75.187 149.623, 78.679 142.263 C 80.182 139.096, 83.848 136.185, 93.624 130.394 C 95.263 129.423, 95.331 128.988, 94.184 126.844 C 92.106 122.961, 82.924 111, 82.021 111 C 81.570 111, 78.275 114.938, 74.700 119.750 M 421.871 120.021 C 418.367 124.982, 415.393 129.369, 415.262 129.771 C 415.130 130.172, 418.432 132.443, 422.598 134.818 C 429.092 138.520, 430.461 139.788, 432.195 143.707 C 435.514 151.212, 433.401 157.720, 426.010 162.750 C 421.441 165.859, 416.640 165.627, 410 161.974 C 400.032 156.491, 399.953 156.463, 398.933 158.057 C 398.212 159.183, 393.429 170.903, 389.313 181.628 C 389.050 182.311, 391.603 183.422, 395.794 184.449 C 399.596 185.381, 404.127 187.007, 405.863 188.063 C 415.498 193.922, 415.240 208.090, 405.396 213.734 C 400.634 216.464, 398.562 216.501, 389.038 214.028 C 384.934 212.962, 381.492 212.183, 381.388 212.295 C 380.867 212.864, 378 233.231, 378 236.369 L 378 240 385.288 240 C 397.830 240, 405.340 245.763, 405.328 255.378 C 405.322 260.553, 402.963 265.178, 398.829 268.122 C 396.235 269.969, 393.952 270.482, 386.813 270.823 L 378 271.245 378 274.092 C 378 276.695, 380.953 298.246, 381.371 298.692 C 381.469 298.797, 385.280 297.947, 389.838 296.802 C 399.442 294.390, 403.805 295.080, 408.480 299.749 C 413.475 304.737, 414.498 312.031, 411.005 317.759 C 408.433 321.978, 404.277 324.443, 396.102 326.599 C 392.471 327.556, 389.371 328.430, 389.213 328.540 C 388.722 328.883, 398.166 351.781, 399.668 353.890 C 399.821 354.104, 403.719 352.366, 408.331 350.028 C 415.740 346.271, 417.207 345.859, 420.939 346.490 C 429.587 347.951, 435.285 356.532, 433.063 364.750 C 431.538 370.391, 429.584 372.564, 421.956 377.095 C 418.130 379.368, 415 381.397, 415 381.603 C 415 382.325, 427.035 398.904, 427.986 399.491 C 429.311 400.310, 442.241 382.702, 449.646 369.993 C 461.396 349.826, 465.630 340.129, 470.929 321.246 C 482.138 281.308, 482.970 240.696, 473.414 200 C 468.761 180.186, 456.900 152.268, 445.585 134.500 C 441.788 128.538, 429.053 111, 428.521 111 C 428.367 111, 425.375 115.059, 421.871 120.021" stroke="none" fill="#000000" fill-rule="evenodd"/>
</svg>